<svg width="283" height="236" viewBox="0 0 283 236" fill="none" xmlns="http://www.w3.org/2000/svg">
<g clip-path="url(#clip0_52_1026)">
<path d="M13.1506 224.883C17.0761 232.156 25.4074 235.277 25.4074 235.277C25.4074 235.277 27.3742 226.608 23.4487 219.336C19.5233 212.064 11.1919 208.942 11.1919 208.942C11.1919 208.942 9.22512 217.611 13.1506 224.883Z" fill="#2F2E41"/>
<path d="M15.8482 222.491C22.9353 226.75 25.6648 235.21 25.6648 235.21C25.6648 235.21 16.9037 236.765 9.81661 232.505C2.72948 228.246 0 219.786 0 219.786C0 219.786 8.76103 218.231 15.8482 222.491Z" fill="white"/>
<path d="M174.742 11.3297H130.523V11.9607H174.742V11.3297Z" fill="#F2F2F2"/>
<path d="M162.741 11.8029H162.109V17.64H162.741V11.8029Z" fill="#F2F2F2"/>
<path d="M143.473 11.8029H142.842V17.64H143.473V11.8029Z" fill="#F2F2F2"/>
<path d="M197.168 41.6196H152.949V42.2506H197.168V41.6196Z" fill="#F2F2F2"/>
<path d="M165.583 35.9402H164.951V41.7773H165.583V35.9402Z" fill="#F2F2F2"/>
<path d="M184.85 35.9402H184.219V41.7773H184.85V35.9402Z" fill="#F2F2F2"/>
<path d="M255.916 55.8179H211.697V56.449H255.916V55.8179Z" fill="#F2F2F2"/>
<path d="M224.331 50.1386H223.699V55.9757H224.331V50.1386Z" fill="#F2F2F2"/>
<path d="M243.597 50.1386H242.965V55.9757H243.597V50.1386Z" fill="#F2F2F2"/>
<path d="M251.494 202.219H207.275V202.85H251.494V202.219Z" fill="#F2F2F2"/>
<path d="M219.909 196.54H219.277V202.377H219.909V196.54Z" fill="#F2F2F2"/>
<path d="M239.175 196.54H238.543V202.377H239.175V196.54Z" fill="#F2F2F2"/>
<path d="M176.006 100.937H131.787V101.568H176.006V100.937Z" fill="#F2F2F2"/>
<path d="M144.421 95.2579H143.789V101.095H144.421V95.2579Z" fill="#F2F2F2"/>
<path d="M163.688 95.2579H163.057V101.095H163.688V95.2579Z" fill="#F2F2F2"/>
<path d="M189.902 176.978H145.684V177.609H189.902V176.978Z" fill="#F2F2F2"/>
<path d="M158.319 171.298H157.688V177.135H158.319V171.298Z" fill="#F2F2F2"/>
<path d="M177.585 171.298H176.953V177.135H177.585V171.298Z" fill="#F2F2F2"/>
<path d="M260.652 153.945H216.434V154.576H260.652V153.945Z" fill="#F2F2F2"/>
<path d="M229.069 148.265H228.438V154.102H229.069V148.265Z" fill="#F2F2F2"/>
<path d="M248.335 148.265H247.703V154.102H248.335V148.265Z" fill="#F2F2F2"/>
<path d="M114.357 221.553H39.5684V221.016H113.819V194.948H45.8556L42.5541 188.076L43.0392 187.844L46.1942 194.41H114.357V221.553Z" fill="#2F2E41"/>
<path d="M49.5206 234.722C52.6407 234.722 55.1701 232.195 55.1701 229.078C55.1701 225.961 52.6407 223.434 49.5206 223.434C46.4005 223.434 43.8711 225.961 43.8711 229.078C43.8711 232.195 46.4005 234.722 49.5206 234.722Z" fill="#3F3D56"/>
<path d="M105.21 234.722C108.33 234.722 110.86 232.195 110.86 229.078C110.86 225.961 108.33 223.434 105.21 223.434C102.09 223.434 99.5605 225.961 99.5605 229.078C99.5605 232.195 102.09 234.722 105.21 234.722Z" fill="#3F3D56"/>
<path d="M170.851 112.712C172.782 112.712 174.348 111.148 174.348 109.218C174.348 107.289 172.782 105.725 170.851 105.725C168.919 105.725 167.354 107.289 167.354 109.218C167.354 111.148 168.919 112.712 170.851 112.712Z" fill="#3F3D56"/>
<path d="M122.355 186.079H38.2927L20.1035 126.687H141.087L140.977 127.036L122.355 186.079ZM38.6907 185.541H121.961L140.354 127.224H20.8307L38.6907 185.541Z" fill="#2F2E41"/>
<path d="M115.794 182.988H41.9587L25.9824 130.315H132.247L132.15 130.625L115.794 182.988Z" fill="#F2F2F2"/>
<path d="M142.594 121.381L142.074 121.243L145.625 107.874H166.278V108.412H146.039L142.594 121.381Z" fill="#2F2E41"/>
<path d="M135.041 144.692H25.9805V145.23H135.041V144.692Z" fill="#2F2E41"/>
<path d="M128.795 164.494H32.0449V165.032H128.795V164.494Z" fill="#2F2E41"/>
<path d="M80.8623 126.955H80.3242V185.81H80.8623V126.955Z" fill="#2F2E41"/>
<path d="M104.952 126.938L101.09 185.792L101.627 185.827L105.489 126.974L104.952 126.938Z" fill="#2F2E41"/>
<path d="M56.246 126.938L55.709 126.973L59.5489 185.828L60.0859 185.793L56.246 126.938Z" fill="#2F2E41"/>
<path d="M283 235.062H0V235.693H283V235.062Z" fill="#2F2E41"/>
<path d="M188.059 19.5231C188.059 19.5231 192.676 32.6507 189.834 34.6704C186.993 36.69 199.424 53.1837 199.424 53.1837L214.341 49.1444L206.172 35.3436C206.172 35.3436 205.107 21.5427 205.107 19.5231C205.107 17.5035 188.059 19.5231 188.059 19.5231Z" fill="#A0616A"/>
<path opacity="0.1" d="M188.059 19.5231C188.059 19.5231 192.676 32.6507 189.834 34.6704C186.993 36.69 199.424 53.1837 199.424 53.1837L214.341 49.1444L206.172 35.3436C206.172 35.3436 205.107 21.5427 205.107 19.5231C205.107 17.5035 188.059 19.5231 188.059 19.5231Z" fill="black"/>
<path d="M180.31 113.099C180.31 113.099 178.962 129.93 180.31 138.681C181.658 147.433 183.68 171.669 183.68 171.669C183.68 171.669 183.68 217.447 191.093 218.12C198.506 218.794 203.897 219.467 204.571 216.774C205.245 214.081 201.201 212.735 203.223 211.388C205.245 210.042 205.919 205.329 203.223 199.944C200.527 194.558 203.223 140.028 203.223 140.028L216.027 174.362C216.027 174.362 217.375 202.637 218.723 206.676C220.071 210.715 217.375 218.12 222.092 218.794C226.81 219.467 232.201 215.428 234.897 214.081C237.592 212.735 230.853 212.735 232.201 212.061C233.549 211.388 237.592 209.369 236.245 208.695C234.897 208.022 233.549 175.708 233.549 175.708C233.549 175.708 229.842 106.704 225.125 104.011C220.408 101.318 217.375 105.957 217.375 105.957L180.31 113.099Z" fill="#2F2E41"/>
<path d="M192.44 215.427V220.813C192.44 220.813 186.375 235.453 192.44 235.453C198.505 235.453 203.222 236.97 203.222 234.951V216.774L192.44 215.427Z" fill="#2F2E41"/>
<path d="M232.201 215.418V220.804C232.201 220.804 238.266 235.444 232.201 235.444C226.135 235.444 221.418 236.961 221.418 234.941V216.764L232.201 215.418Z" fill="#2F2E41"/>
<path d="M197.494 29.2847C204.193 29.2847 209.624 23.8593 209.624 17.1669C209.624 10.4744 204.193 5.04907 197.494 5.04907C190.794 5.04907 185.363 10.4744 185.363 17.1669C185.363 23.8593 190.794 29.2847 197.494 29.2847Z" fill="#A0616A"/>
<path d="M193.787 39.7194C193.787 39.7194 197.157 49.8176 202.548 47.798L207.939 45.7783L217.374 110.407C217.374 110.407 209.961 121.178 199.179 114.446C188.396 107.714 193.787 39.7194 193.787 39.7194Z" fill="white"/>
<path d="M203.223 37.6998L206.255 31.3043C206.255 31.3043 224.114 39.7195 226.81 42.4123C229.505 45.1051 229.505 49.1444 229.505 49.1444L224.788 65.9747C224.788 65.9747 226.136 103.001 226.136 104.348C226.136 105.694 230.853 113.099 227.483 110.407C224.114 107.714 223.44 105.021 220.744 109.06C218.049 113.099 211.984 117.812 211.984 117.812L203.223 37.6998Z" fill="#3F3D56"/>
<path d="M226.808 86.171L224.787 105.021C224.787 105.021 212.656 115.792 215.352 116.466C218.047 117.139 219.395 114.446 219.395 114.446C219.395 114.446 224.113 119.158 226.808 116.466C229.504 113.773 236.243 88.1907 236.243 88.1907L226.808 86.171Z" fill="#A0616A"/>
<path d="M197.753 0.0409769C195.064 -0.0550579 192.186 -0.102563 189.919 1.34509C188.875 2.0716 187.96 2.96637 187.211 3.99278C185.003 6.7815 183.095 10.2903 183.915 13.7504L184.868 13.3792C184.868 14.3028 184.662 15.2148 184.266 16.0493C184.4 15.6596 184.849 16.2896 184.729 16.6838L183.68 20.1231C185.405 19.4914 187.551 20.7706 187.814 22.5873C187.933 18.5924 188.348 14.0115 191.592 11.6724C193.228 10.4927 195.299 10.1326 197.291 9.81286C199.128 9.51785 201.055 9.23654 202.815 9.8409C204.575 10.4453 206.074 12.2436 205.675 14.0597C206.487 13.7804 207.395 14.3454 207.796 15.1036C208.197 15.8618 208.218 16.7561 208.23 17.6136C209.095 18.2244 210.08 17.0115 210.432 16.0136C211.26 13.671 211.996 11.1775 211.55 8.73356C211.104 6.28966 209.11 3.95415 206.624 3.94586C206.925 3.61467 207.086 3.17918 207.073 2.7315L205.023 2.5585C205.543 2.4849 206.022 2.23287 206.377 1.84557C205.554 2.75015 199.084 0.0884974 197.753 0.0409769Z" fill="#2F2E41"/>
<path d="M197.157 35.6802C197.157 35.6802 191.671 30.3098 189.696 30.6387C187.722 30.9677 185.026 35.6802 185.026 35.6802C185.026 35.6802 168.852 41.0659 169.526 46.4516C170.2 51.8372 177.613 78.0925 177.613 78.0925C177.613 78.0925 183.678 109.733 178.287 113.099C172.896 116.465 203.896 125.217 204.57 121.178C205.244 117.139 206.591 76.746 204.57 70.6871C202.548 64.6283 197.157 35.6802 197.157 35.6802Z" fill="#3F3D56"/>
<path d="M220.744 46.4515H229.077C229.077 46.4515 234.896 72.0336 235.57 74.7264C236.244 77.4192 237.592 90.2103 236.918 90.2103C236.244 90.2103 222.766 87.5174 222.766 89.537L220.744 46.4515Z" fill="#3F3D56"/>
<path d="M220.463 109.801H188.562C185.449 95.4953 185.189 81.6735 188.562 68.4678H220.463C215.315 81.4359 214.993 95.1631 220.463 109.801Z" fill="#F2F2F2"/>
<path d="M175.592 92.2299L185.027 96.2692C185.027 96.2692 203.222 98.962 203.222 91.5567C203.222 84.1514 185.027 88.1906 185.027 88.1906L178.961 86.2533L175.592 92.2299Z" fill="#A0616A"/>
<path d="M177.613 42.4123L169.526 44.4319L163.461 80.1121C163.461 80.1121 161.439 89.5371 164.809 90.2103C168.178 90.8835 177.613 96.2692 177.613 96.2692C177.613 96.2692 178.961 86.171 181.656 86.171L174.917 80.7853L178.961 57.2229L177.613 42.4123Z" fill="#3F3D56"/>
<path d="M63.248 111.349H19.0293V111.981H63.248V111.349Z" fill="#F2F2F2"/>
<path d="M31.6629 105.67H31.0312V111.507H31.6629V105.67Z" fill="#F2F2F2"/>
<path d="M50.9305 105.67H50.2988V111.507H50.9305V105.67Z" fill="#F2F2F2"/>
<path d="M78.7246 17.9556H34.5059V18.5866H78.7246V17.9556Z" fill="#F2F2F2"/>
<path d="M66.7215 18.4288H66.0898V24.266H66.7215V18.4288Z" fill="#F2F2F2"/>
<path d="M47.4559 18.4288H46.8242V24.266H47.4559V18.4288Z" fill="#F2F2F2"/>
<path d="M123.26 80.113H79.041V80.7441H123.26V80.113Z" fill="#F2F2F2"/>
<path d="M111.257 80.5863H110.625V86.4234H111.257V80.5863Z" fill="#F2F2F2"/>
<path d="M91.9911 80.5863H91.3594V86.4234H91.9911V80.5863Z" fill="#F2F2F2"/>
<path d="M48.0879 79.7975H3.86914V80.4285H48.0879V79.7975Z" fill="#F2F2F2"/>
<path d="M36.0848 80.2708H35.4531V86.1079H36.0848V80.2708Z" fill="#F2F2F2"/>
<path d="M16.8192 80.2708H16.1875V86.1079H16.8192V80.2708Z" fill="#F2F2F2"/>
<path d="M101.15 48.2455H56.9316V48.8765H101.15V48.2455Z" fill="#F2F2F2"/>
<path d="M69.5653 42.5661H68.9336V48.4032H69.5653V42.5661Z" fill="#F2F2F2"/>
<path d="M88.8309 42.5661H88.1992V48.4032H88.8309V42.5661Z" fill="#F2F2F2"/>
</g>
<defs>
<clipPath id="clip0_52_1026">
<rect width="283" height="236" fill="white"/>
</clipPath>
</defs>
</svg>
