<svg width="391" height="304" viewBox="0 0 391 304" fill="none" xmlns="http://www.w3.org/2000/svg">
<g clip-path="url(#clip0_50_762)">
<path d="M222.638 148.647C231.436 148.647 238.568 141.506 238.568 132.698C238.568 123.89 231.436 116.75 222.638 116.75C213.839 116.75 206.707 123.89 206.707 132.698C206.707 141.506 213.839 148.647 222.638 148.647Z" fill="#E6E6E6"/>
<path d="M261.68 153.193L245.032 136.526C246.308 134.539 247.173 132.316 247.575 129.988C247.977 127.66 247.909 125.275 247.373 122.975C246.838 120.674 245.847 118.504 244.459 116.594C243.07 114.684 241.313 113.072 239.291 111.854C235.484 109.577 230.961 108.814 226.619 109.717C222.277 110.62 218.432 113.123 215.845 116.73C213.465 120.071 212.322 124.137 212.613 128.23C212.903 132.323 214.609 136.187 217.436 139.158C220.264 142.129 224.037 144.02 228.107 144.507C232.177 144.995 236.289 144.047 239.737 141.828L256.385 158.495C257.087 159.197 258.039 159.592 259.032 159.591C260.025 159.591 260.977 159.196 261.679 158.493C262.381 157.791 262.775 156.837 262.776 155.844C262.776 154.85 262.382 153.896 261.68 153.193ZM239.115 135.904C237.052 137.969 234.338 139.255 231.435 139.541C228.532 139.827 225.619 139.097 223.194 137.474C220.768 135.852 218.979 133.437 218.132 130.643C217.286 127.848 217.433 124.846 218.549 122.147C219.666 119.449 221.682 117.222 224.255 115.845C226.828 114.468 229.798 114.027 232.659 114.597C235.52 115.167 238.095 116.712 239.946 118.97C241.797 121.227 242.808 124.058 242.808 126.978C242.81 128.636 242.485 130.278 241.851 131.81C241.218 133.342 240.288 134.733 239.115 135.904Z" fill="#3F3D56"/>
<path d="M382.358 177.777C424.933 224.914 301.516 292.844 201.792 292.844C102.068 292.844 33.0741 240.21 21.2252 177.777C-7.50429 26.3988 266.007 -69.8165 201.792 62.7103C108.19 255.884 348.83 140.656 382.358 177.777Z" fill="#E6E6E6"/>
<path d="M363.256 188.933C405.83 236.069 282.413 304 182.689 304C82.965 304 13.9715 251.366 2.12264 188.933C-26.6068 37.5546 246.905 -58.6607 182.689 73.8661C89.0877 267.039 329.727 151.812 363.256 188.933Z" fill="#3F3D56"/>
<path d="M59.5335 78.4191C29.6589 77.1022 6.49553 70.6508 6.79984 63.7316C6.98228 59.5834 15.4371 56.2476 29.9962 54.5801C30.0483 54.5738 30.1011 54.5778 30.1517 54.5921C30.2022 54.6063 30.2494 54.6303 30.2906 54.6629C30.3318 54.6954 30.3662 54.7358 30.3917 54.7817C30.4173 54.8276 30.4335 54.8781 30.4395 54.9304C30.4454 54.9826 30.441 55.0354 30.4265 55.0859C30.412 55.1364 30.3876 55.1835 30.3548 55.2246C30.322 55.2656 30.2814 55.2997 30.2354 55.325C30.1894 55.3502 30.1388 55.3661 30.0866 55.3718C16.3719 56.9427 7.75366 60.1595 7.595 63.7667C7.31981 70.0237 31.1207 76.3691 59.5685 77.6231C88.0162 78.877 112.282 74.6504 112.557 68.3934C112.717 64.7711 104.36 60.7973 90.7494 58.0232C90.6981 58.0129 90.6493 57.9925 90.6058 57.9633C90.5623 57.9341 90.5251 57.8966 90.4961 57.8529C90.4671 57.8092 90.4471 57.7602 90.4371 57.7088C90.427 57.6573 90.4273 57.6044 90.4377 57.553C90.4482 57.5017 90.4686 57.4529 90.4979 57.4094C90.5273 57.366 90.5649 57.3288 90.6086 57.2999C90.6523 57.2711 90.7012 57.2511 90.7527 57.2412C90.8041 57.2313 90.857 57.2317 90.9082 57.2423C105.355 60.1869 113.536 64.2641 113.352 68.4285C113.048 75.3476 89.408 79.736 59.5335 78.4191Z" fill="white"/>
<path d="M33.001 79.5779C35.5002 84.3309 39.2023 88.3435 43.737 91.2142C48.2717 94.0849 53.4799 95.7131 58.8405 95.9359C64.2011 96.1586 69.5262 94.9681 74.2829 92.4835C79.0396 89.9988 83.0611 86.3072 85.9452 81.7779C68.2702 82.0164 50.5954 81.2819 33.001 79.5779Z" fill="white"/>
<path d="M89.25 73.3971C90.7541 68.8805 91.1875 64.0755 90.5159 59.3623C89.8443 54.649 88.0862 50.157 85.3806 46.2416C82.675 42.3263 79.0963 39.0951 74.9277 36.8038C70.7591 34.5125 66.115 33.224 61.363 33.0403C56.6109 32.8566 51.8814 33.7827 47.5487 35.7453C43.216 37.7079 39.3991 40.6532 36.4 44.348C33.4009 48.0428 31.3019 52.3857 30.2693 57.0331C29.2366 61.6804 29.2986 66.5046 30.4502 71.1239C49.8695 74.4242 69.6344 75.1883 89.25 73.3971Z" fill="white"/>
<path d="M67.1901 52.8307C69.1683 52.8307 70.7718 51.2253 70.7718 49.245C70.7718 47.2646 69.1683 45.6592 67.1901 45.6592C65.212 45.6592 63.6084 47.2646 63.6084 49.245C63.6084 51.2253 65.212 52.8307 67.1901 52.8307Z" fill="white"/>
<path d="M48.7567 66.7717C52.0535 66.7717 54.7262 64.096 54.7262 60.7954C54.7262 57.4948 52.0535 54.8191 48.7567 54.8191C45.4598 54.8191 42.7871 57.4948 42.7871 60.7954C42.7871 64.096 45.4598 66.7717 48.7567 66.7717Z" fill="white"/>
<path d="M138.854 60.9175C141.051 60.9175 142.833 59.1338 142.833 56.9334C142.833 54.7331 141.051 52.9493 138.854 52.9493C136.656 52.9493 134.874 54.7331 134.874 56.9334C134.874 59.1338 136.656 60.9175 138.854 60.9175Z" fill="white"/>
<path d="M48.9123 182.834C50.231 182.834 51.3001 181.764 51.3001 180.444C51.3001 179.123 50.231 178.053 48.9123 178.053C47.5935 178.053 46.5244 179.123 46.5244 180.444C46.5244 181.764 47.5935 182.834 48.9123 182.834Z" fill="#E6E6E6"/>
<path d="M216.06 264.909C217.378 264.909 218.448 263.838 218.448 262.518C218.448 261.198 217.378 260.128 216.06 260.128C214.741 260.128 213.672 261.198 213.672 262.518C213.672 263.838 214.741 264.909 216.06 264.909Z" fill="#E6E6E6"/>
<path d="M60.4537 136.617C61.1131 136.617 61.6476 136.082 61.6476 135.422C61.6476 134.762 61.1131 134.227 60.4537 134.227C59.7943 134.227 59.2598 134.762 59.2598 135.422C59.2598 136.082 59.7943 136.617 60.4537 136.617Z" fill="#E6E6E6"/>
<path d="M159.15 225.863C159.809 225.863 160.344 225.328 160.344 224.668C160.344 224.008 159.809 223.473 159.15 223.473C158.491 223.473 157.956 224.008 157.956 224.668C157.956 225.328 158.491 225.863 159.15 225.863Z" fill="#E6E6E6"/>
<path d="M338.634 214.309C339.294 214.309 339.828 213.774 339.828 213.114C339.828 212.454 339.294 211.919 338.634 211.919C337.975 211.919 337.44 212.454 337.44 213.114C337.44 213.774 337.975 214.309 338.634 214.309Z" fill="#E6E6E6"/>
<path d="M282.52 249.769C283.179 249.769 283.714 249.234 283.714 248.573C283.714 247.913 283.179 247.378 282.52 247.378C281.861 247.378 281.326 247.913 281.326 248.573C281.326 249.234 281.861 249.769 282.52 249.769Z" fill="#E6E6E6"/>
<path d="M224.019 206.739C224.679 206.739 225.213 206.204 225.213 205.544C225.213 204.884 224.679 204.349 224.019 204.349C223.36 204.349 222.825 204.884 222.825 205.544C222.825 206.204 223.36 206.739 224.019 206.739Z" fill="#E6E6E6"/>
<path d="M148.405 88.8071C149.064 88.8071 149.599 88.2719 149.599 87.6118C149.599 86.9517 149.064 86.4165 148.405 86.4165C147.745 86.4165 147.211 86.9517 147.211 87.6118C147.211 88.2719 147.745 88.8071 148.405 88.8071Z" fill="#E6E6E6"/>
<path d="M157.956 29.841C158.615 29.841 159.15 29.3058 159.15 28.6457C159.15 27.9855 158.615 27.4504 157.956 27.4504C157.296 27.4504 156.762 27.9855 156.762 28.6457C156.762 29.3058 157.296 29.841 157.956 29.841Z" fill="#E6E6E6"/>
<path d="M152.384 278.056C153.044 278.056 153.578 277.521 153.578 276.861C153.578 276.201 153.044 275.666 152.384 275.666C151.725 275.666 151.19 276.201 151.19 276.861C151.19 277.521 151.725 278.056 152.384 278.056Z" fill="#E6E6E6"/>
<path d="M93.4849 252.956C94.1443 252.956 94.6789 252.421 94.6789 251.761C94.6789 251.101 94.1443 250.565 93.4849 250.565C92.8256 250.565 92.291 251.101 92.291 251.761C92.291 252.421 92.8256 252.956 93.4849 252.956Z" fill="#E6E6E6"/>
<path d="M280.132 209.927C280.792 209.927 281.326 209.392 281.326 208.731C281.326 208.071 280.792 207.536 280.132 207.536C279.473 207.536 278.938 208.071 278.938 208.731C278.938 209.392 279.473 209.927 280.132 209.927Z" fill="#E6E6E6"/>
<path d="M59.0485 93.1501C61.0267 93.1501 62.6302 91.5447 62.6302 89.5643C62.6302 87.5839 61.0267 85.9785 59.0485 85.9785C57.0704 85.9785 55.4668 87.5839 55.4668 89.5643C55.4668 91.5447 57.0704 93.1501 59.0485 93.1501Z" fill="white"/>
<path d="M140.047 144.586C140.047 155.296 123.508 180.251 118.674 187.315C118.529 187.529 118.333 187.703 118.104 187.824C117.876 187.945 117.621 188.008 117.363 188.008C117.105 188.008 116.85 187.945 116.622 187.824C116.393 187.703 116.197 187.529 116.052 187.315C111.218 180.251 94.6787 155.296 94.6787 144.586C94.6787 141.604 95.2655 138.65 96.4054 135.895C97.5454 133.14 99.2163 130.636 101.323 128.528C103.429 126.419 105.93 124.746 108.682 123.605C111.434 122.463 114.384 121.876 117.363 121.876C120.342 121.876 123.292 122.463 126.044 123.605C128.796 124.746 131.297 126.419 133.403 128.528C135.51 130.636 137.181 133.14 138.32 135.895C139.46 138.65 140.047 141.604 140.047 144.586Z" fill="white"/>
<path d="M117.363 154.546C123.737 154.546 128.904 149.373 128.904 142.992C128.904 136.611 123.737 131.438 117.363 131.438C110.989 131.438 105.822 136.611 105.822 142.992C105.822 149.373 110.989 154.546 117.363 154.546Z" fill="white"/>
<path d="M117.164 200.365C124.527 200.365 130.496 199.205 130.496 197.775C130.496 196.345 124.527 195.185 117.164 195.185C109.801 195.185 103.832 196.345 103.832 197.775C103.832 199.205 109.801 200.365 117.164 200.365Z" fill="white"/>
<path d="M325.083 126.665C324.982 126.861 324.896 127.065 324.828 127.274L305.811 132.564L302.384 129.207L296.647 133.722L302.137 140.256C302.581 140.784 303.183 141.153 303.854 141.309C304.525 141.465 305.229 141.399 305.859 141.12L326.401 132.042C327.098 132.526 327.926 132.787 328.774 132.789C329.622 132.791 330.451 132.534 331.15 132.053C331.849 131.571 332.385 130.889 332.687 130.095C332.989 129.301 333.042 128.434 332.84 127.609C332.638 126.785 332.19 126.041 331.555 125.477C330.92 124.914 330.129 124.557 329.287 124.455C328.445 124.352 327.592 124.509 326.841 124.904C326.09 125.299 325.476 125.913 325.083 126.665H325.083Z" fill="#FFB8B8"/>
<path d="M305.142 132.874L298.004 138.436C297.801 138.594 297.566 138.707 297.316 138.766C297.065 138.825 296.805 138.83 296.553 138.779C296.3 138.729 296.062 138.624 295.853 138.473C295.645 138.322 295.472 138.128 295.345 137.903L290.909 130.043C290.106 128.999 289.749 127.678 289.918 126.37C290.086 125.063 290.766 123.875 291.807 123.069C292.849 122.262 294.167 121.902 295.474 122.067C296.78 122.232 297.968 122.909 298.776 123.95L305.279 130.163C305.465 130.341 305.61 130.557 305.705 130.796C305.801 131.035 305.843 131.293 305.83 131.55C305.817 131.807 305.749 132.059 305.63 132.287C305.511 132.516 305.345 132.716 305.142 132.874V132.874Z" fill="white"/>
<path d="M326.907 124.035L334.145 127.295C334.448 127.432 334.684 127.683 334.802 127.994C334.92 128.305 334.91 128.651 334.774 128.954L333.917 130.861C334.017 130.907 334.096 130.991 334.135 131.094C334.174 131.198 334.171 131.313 334.126 131.414L333.783 132.177C333.738 132.278 333.654 132.356 333.55 132.396C333.447 132.435 333.332 132.432 333.231 132.387L332.888 133.149C332.989 133.195 333.068 133.279 333.107 133.383C333.146 133.486 333.143 133.601 333.098 133.702L332.755 134.465C332.709 134.566 332.625 134.645 332.522 134.684C332.418 134.723 332.304 134.72 332.203 134.675L327.575 144.973C327.438 145.276 327.187 145.513 326.877 145.631C326.566 145.749 326.221 145.738 325.918 145.602L318.679 142.342C318.376 142.205 318.14 141.954 318.022 141.643C317.904 141.331 317.914 140.986 318.051 140.683L325.249 124.664C325.386 124.361 325.637 124.124 325.948 124.006C326.259 123.888 326.603 123.898 326.907 124.035Z" fill="#3F3D56"/>
<path d="M319.994 141.327L325.8 143.945C326.091 144.075 326.422 144.085 326.72 143.972C327.018 143.859 327.26 143.633 327.392 143.343L330.074 137.371L331.005 135.301L333.433 129.897C333.562 129.606 333.572 129.276 333.459 128.978C333.346 128.681 333.121 128.44 332.831 128.308L331.005 127.484L327.02 125.69C326.729 125.56 326.399 125.551 326.101 125.664C325.804 125.778 325.563 126.005 325.433 126.296L323.085 131.52L320.412 137.467L319.392 139.738C319.262 140.028 319.252 140.359 319.365 140.657C319.478 140.955 319.704 141.196 319.994 141.327Z" fill="#F2F2F2"/>
<path d="M307.86 215.323L312.739 215.323L315.061 196.482L307.859 196.483L307.86 215.323Z" fill="#FFB8B8"/>
<path d="M306.616 213.728L316.225 213.728H316.225C317.029 213.728 317.825 213.887 318.568 214.195C319.311 214.503 319.986 214.954 320.555 215.524C321.124 216.093 321.575 216.769 321.882 217.512C322.19 218.256 322.348 219.053 322.348 219.858V220.057L306.617 220.058L306.616 213.728Z" fill="#2F2E41"/>
<path d="M320.596 214.128L325.475 214.128L327.796 195.287L320.595 195.288L320.596 214.128Z" fill="#FFB8B8"/>
<path d="M319.351 212.533L328.959 212.533H328.959C329.764 212.533 330.56 212.691 331.303 212.999C332.046 213.307 332.721 213.759 333.289 214.328C333.858 214.898 334.309 215.573 334.617 216.317C334.924 217.061 335.083 217.858 335.083 218.663V218.862L319.351 218.863L319.351 212.533Z" fill="#2F2E41"/>
<path d="M285.974 171.113C287.014 174.198 288.986 176.883 291.617 178.796C294.248 180.71 297.408 181.758 300.659 181.794L300.906 181.798C303.425 181.87 306.382 181.057 309.283 179.89C315.014 177.583 320.518 173.89 321.979 172.874L319.503 196.695L318.5 206.353C318.475 206.603 318.502 206.855 318.58 207.094C318.658 207.333 318.785 207.552 318.953 207.739C319.121 207.925 319.326 208.075 319.556 208.177C319.785 208.279 320.033 208.332 320.283 208.333H326.464C326.86 208.333 327.245 208.202 327.559 207.96C327.873 207.718 328.098 207.378 328.199 206.994L338.403 168.089C338.709 166.924 338.734 165.703 338.475 164.528C338.216 163.352 337.681 162.254 336.914 161.326C336.148 160.399 335.172 159.667 334.066 159.192C332.961 158.717 331.759 158.512 330.559 158.594L309.363 160.049L310.843 154.12L291.924 152.861L291.868 152.901C291.415 153.232 290.973 153.578 290.551 153.941C289.496 154.834 288.561 155.86 287.769 156.993C286.352 159.026 285.449 161.372 285.136 163.832C284.824 166.291 285.111 168.789 285.974 171.113Z" fill="#2F2E41"/>
<path d="M285.974 171.113C287.014 174.198 288.986 176.883 291.617 178.796C294.248 180.71 297.408 181.758 300.659 181.794C303.769 180.219 306.77 178.436 309.642 176.459L309.283 179.89L306.163 209.939C306.138 210.189 306.165 210.441 306.243 210.68C306.321 210.918 306.448 211.138 306.616 211.325C306.784 211.511 306.989 211.66 307.219 211.763C307.448 211.865 307.695 211.918 307.946 211.919H314.127C314.523 211.919 314.908 211.788 315.222 211.546C315.536 211.303 315.761 210.964 315.862 210.58L319.503 196.695L326.066 171.674C326.372 170.51 326.396 169.289 326.138 168.113C325.879 166.937 325.344 165.84 324.577 164.912C323.811 163.984 322.835 163.253 321.729 162.777C320.624 162.302 319.422 162.098 318.222 162.18L297.026 163.634L298.506 157.706L287.769 156.993C286.352 159.026 285.449 161.372 285.136 163.832C284.824 166.291 285.111 168.789 285.974 171.113Z" fill="#2F2E41"/>
<path d="M290.525 155.315L290.383 155.298L287.081 139.048C287.053 138.907 284.354 124.891 292.628 117.564L292.772 116.561C292.809 116.304 292.901 116.059 293.042 115.841C293.182 115.624 293.369 115.439 293.588 115.301C293.807 115.162 294.053 115.073 294.31 115.039C294.566 115.005 294.827 115.027 295.075 115.104L302.869 117.524C303.31 117.66 303.682 117.962 303.906 118.366C304.13 118.77 304.189 119.245 304.07 119.692L303.313 122.577C304.363 123.813 316.73 138.718 312.422 150.202L310.493 157.753L290.525 155.315Z" fill="white"/>
<path d="M322.887 142.633C322.701 142.751 322.524 142.882 322.359 143.028L303.297 137.905L302.051 133.27L294.817 134.238L296.227 142.658C296.341 143.339 296.672 143.964 297.171 144.439C297.67 144.915 298.309 145.216 298.993 145.297L321.292 147.934C321.647 148.706 322.227 149.351 322.957 149.785C323.686 150.218 324.53 150.419 325.377 150.36C326.223 150.302 327.031 149.986 327.695 149.457C328.358 148.927 328.844 148.207 329.088 147.394C329.333 146.581 329.325 145.712 329.064 144.904C328.804 144.096 328.304 143.386 327.631 142.869C326.957 142.352 326.143 142.053 325.296 142.011C324.449 141.969 323.609 142.186 322.887 142.633H322.887Z" fill="#FFB8B8"/>
<path d="M302.563 137.831L293.592 138.988C293.337 139.02 293.077 138.998 292.832 138.921C292.586 138.845 292.359 138.716 292.168 138.544C291.976 138.372 291.824 138.161 291.721 137.925C291.618 137.689 291.568 137.433 291.573 137.175L291.744 128.149C291.583 126.841 291.947 125.522 292.756 124.482C293.565 123.442 294.753 122.765 296.059 122.601C297.366 122.436 298.684 122.797 299.725 123.604C300.766 124.411 301.445 125.599 301.613 126.906L304.057 135.566C304.127 135.813 304.143 136.074 304.103 136.328C304.064 136.583 303.97 136.826 303.828 137.041C303.686 137.256 303.5 137.438 303.281 137.574C303.063 137.71 302.818 137.798 302.563 137.831Z" fill="white"/>
<path d="M300.037 112.898C305.436 112.898 309.812 108.517 309.812 103.113C309.812 97.7081 305.436 93.327 300.037 93.327C294.639 93.327 290.263 97.7081 290.263 103.113C290.263 108.517 294.639 112.898 300.037 112.898Z" fill="#FFB8B8"/>
<path d="M299.523 103.93L298.299 101.699C295.981 111.154 300.076 118.979 300.076 118.979L284.184 111.568L284.335 108.939L282.762 110.725L280.503 109.479L280.205 107.773L278.499 108.196L284.725 96.8863C290.767 86.1237 299.551 90.2328 299.551 90.2328C313.526 89.5677 311.819 103.371 311.819 103.371L299.523 103.93Z" fill="#2F2E41"/>
<path d="M188.255 176.853C190.509 175.407 187.768 167.101 182.134 158.302C176.499 149.503 170.105 143.543 167.851 144.989C165.597 146.435 168.338 154.741 173.973 163.54C179.607 172.339 186.001 178.3 188.255 176.853Z" fill="#3F3D56"/>
</g>
<defs>
<clipPath id="clip0_50_762">
<rect width="391" height="304" fill="white"/>
</clipPath>
</defs>
</svg>
